<svg xmlns="http://www.w3.org/2000/svg" viewBox="0 0 400 200" width="100%" height="100%">
  <defs>
    <linearGradient id="bgGradient1" x1="0%" y1="0%" x2="100%" y2="100%">
      <stop offset="0%" stop-color="#ecfdf5" />
      <stop offset="100%" stop-color="#d1fae5" />
    </linearGradient>
    <linearGradient id="serverGrad" x1="0%" y1="0%" x2="100%" y2="0%">
      <stop offset="0%" stop-color="#0f172a" />
      <stop offset="100%" stop-color="#1e293b" />
    </linearGradient>
  </defs>
  <rect width="400" height="200" rx="16" fill="url(#bgGradient1)"/>
  <g transform="translate(130, 40)">
    <rect x="0" y="0" width="140" height="30" rx="6" fill="url(#serverGrad)"/>
    <circle cx="20" cy="15" r="4" fill="#10b981"/>
    <rect x="35" y="13" width="60" height="4" rx="2" fill="#334155"/>
    
    <rect x="0" y="45" width="140" height="30" rx="6" fill="url(#serverGrad)"/>
    <circle cx="20" cy="60" r="4" fill="#10b981"/>
    <rect x="35" y="58" width="60" height="4" rx="2" fill="#334155"/>
    
    <rect x="0" y="90" width="140" height="30" rx="6" fill="url(#serverGrad)"/>
    <circle cx="20" cy="105" r="4" fill="#10b981"/>
    <rect x="35" y="103" width="60" height="4" rx="2" fill="#334155"/>
  </g>
  <path d="M100 55 C 60 55, 60 145, 130 105" fill="none" stroke="#10b981" stroke-width="2" stroke-dasharray="4 4" opacity="0.5"/>
  <path d="M300 55 C 340 55, 340 145, 270 105" fill="none" stroke="#10b981" stroke-width="2" stroke-dasharray="4 4" opacity="0.5"/>
</svg>
